<?xml version="1.0" encoding="UTF-8" standalone="no"?>
<!-- Created with Inkscape (http://www.inkscape.org/) -->

<svg
   width="500"
   height="500"
   viewBox="0 0 132.29166 132.29167"
   version="1.1"
   id="svg1"
   xml:space="preserve"
   inkscape:version="1.3.2 (091e20e, 2023-11-25, custom)"
   sodipodi:docname="social_logos.svg"
   inkscape:export-filename="youtube.png"
   inkscape:export-xdpi="96"
   inkscape:export-ydpi="96"
   xmlns:inkscape="http://www.inkscape.org/namespaces/inkscape"
   xmlns:sodipodi="http://sodipodi.sourceforge.net/DTD/sodipodi-0.dtd"
   xmlns="http://www.w3.org/2000/svg"
   xmlns:svg="http://www.w3.org/2000/svg"><sodipodi:namedview
     id="namedview1"
     pagecolor="#ffffff"
     bordercolor="#000000"
     borderopacity="0.25"
     inkscape:showpageshadow="2"
     inkscape:pageopacity="0.0"
     inkscape:pagecheckerboard="0"
     inkscape:deskcolor="#d1d1d1"
     inkscape:document-units="px"
     inkscape:zoom="0.51213161"
     inkscape:cx="-373.92732"
     inkscape:cy="493.03733"
     inkscape:window-width="1920"
     inkscape:window-height="1009"
     inkscape:window-x="-8"
     inkscape:window-y="-8"
     inkscape:window-maximized="1"
     inkscape:current-layer="layer1" /><defs
     id="defs1" /><g
     inkscape:label="Layer 1"
     inkscape:groupmode="layer"
     id="layer1"><g
       id="g9"
       transform="translate(46.310044,-1.4520451)"><circle
         style="fill:#ff5555;stroke:none;stroke-width:12.9224;stroke-linecap:round;stroke-linejoin:round;paint-order:fill markers stroke"
         id="circle6"
         cx="-153.04236"
         cy="19.06189"
         r="61.555344" /><path
         sodipodi:type="star"
         style="fill:#ffffff;stroke:none;stroke-width:10.5833;stroke-linecap:round;stroke-linejoin:round;paint-order:fill markers stroke"
         id="path7"
         inkscape:flatsided="true"
         sodipodi:sides="3"
         sodipodi:cx="33.608856"
         sodipodi:cy="46.942802"
         sodipodi:r1="37.810406"
         sodipodi:r2="18.905203"
         sodipodi:arg1="0"
         sodipodi:arg2="1.0471976"
         inkscape:rounded="0"
         inkscape:randomized="0"
         d="m 71.419262,46.942802 -56.715609,32.744772 0,-65.489543 z"
         inkscape:transform-center-x="-9.4526013"
         transform="translate(-196.10381,-27.880917)" /></g><g
       id="g8"
       transform="translate(29.832903,-23.248427)"><circle
         style="fill:#8080ff;stroke:none;stroke-width:12.9224;stroke-linecap:round;stroke-linejoin:round;paint-order:fill markers stroke"
         id="circle7"
         cx="-153.04236"
         cy="161.72267"
         r="61.555344" /><path
         id="path8"
         style="fill:#ffffff;stroke:none;stroke-width:10.5833;stroke-linecap:round;stroke-linejoin:round;paint-order:fill markers stroke"
         d="m -164.22565,131.62502 c -4.52052,0.64578 -9.64362,2.15225 -15.36961,4.52014 -9.72801,14.19983 -13.6494,29.45594 -12.01167,45.72227 6.86408,5.11558 13.34286,7.91868 19.69337,9.95288 1.86114,-2.44483 3.66262,-5.52714 5.29167,-9.02787 a 34.36607,24.86289 0 0 0 13.57953,2.04535 34.36607,24.86289 0 0 0 13.57954,-2.04535 c 1.62905,3.50073 3.43053,6.58304 5.29166,9.02787 6.35052,-2.0342 12.8293,-4.8373 19.69337,-9.95288 1.63773,-16.26633 -2.28366,-31.52244 -12.01167,-45.72227 -5.72598,-2.36789 -10.84909,-3.87436 -15.3696,-4.52014 -0.84235,1.36603 -1.54959,2.8322 -2.15439,4.36562 a 34.36607,24.86289 0 0 0 -9.02891,-0.8785 34.36607,24.86289 0 0 0 -9.02839,0.88005 c -0.60492,-1.53398 -1.31227,-3.00069 -2.1549,-4.36717 z m -1.82418,24.48584 a 8.1369467,8.1369467 0 0 1 8.13697,8.13697 8.1369467,8.1369467 0 0 1 -8.13697,8.13697 8.1369467,8.1369467 0 0 1 -8.13697,-8.13697 8.1369467,8.1369467 0 0 1 8.13697,-8.13697 z m 26.01495,0 a 8.1369467,8.1369467 0 0 1 8.13697,8.13697 8.1369467,8.1369467 0 0 1 -8.13697,8.13697 8.1369467,8.1369467 0 0 1 -8.13697,-8.13697 8.1369467,8.1369467 0 0 1 8.13697,-8.13697 z" /></g><g
       id="g10"
       transform="translate(-132.7743,34.614302)"><circle
         style="fill:#5599ff;stroke:none;stroke-width:12.9224;stroke-linecap:round;stroke-linejoin:round;paint-order:fill markers stroke"
         id="circle9"
         cx="45.480576"
         cy="260.39929"
         r="61.555344" /><path
         d="m 25.135262,233.03349 c 8.235304,6.18255 17.093309,18.71818 20.34552,25.44552 3.25246,-6.72685 12.109971,-19.2631 20.345525,-25.44552 5.942161,-4.46108 15.569992,-7.91281 15.569992,3.07078 0,2.19357 -1.25766,18.42713 -1.99529,21.06259 -2.563998,9.16267 -11.90711,11.49965 -20.217964,10.0852 14.527213,2.47247 18.222797,10.6622 10.241747,18.85193 -15.157588,15.55389 -21.785859,-3.90253 -23.485034,-8.88798 -0.311351,-0.91395 -0.457044,-1.3415 -0.459186,-0.97794 -0.0022,-0.36358 -0.147836,0.064 -0.459186,0.97794 -1.698433,4.98545 -8.326579,24.44237 -23.485032,8.88798 -7.98117,-8.18973 -4.285712,-16.37995 10.241742,-18.85193 -8.311098,1.41445 -17.654333,-0.92255 -20.21796,-10.0852 -0.737655,-2.6357 -1.9952916,-18.86927 -1.9952916,-21.06259 0,-10.98359 9.6280846,-7.53186 15.5699966,-3.07078 z"
         fill="#1185fe"
         id="path9"
         style="fill:#ffffff;stroke-width:0.123846" /></g><g
       id="g11"
       transform="translate(-4.5904922,164.28882)"><circle
         style="fill:#1a1a1a;stroke:none;stroke-width:12.9224;stroke-linecap:round;stroke-linejoin:round;paint-order:fill markers stroke"
         id="path1"
         cx="66.145836"
         cy="66.145836"
         r="61.555344" /><path
         fill="#1d9bf0"
         d="m 98.298665,82.64148 c 0.04928,-0.71287 0.04928,-1.425728 0.04928,-2.145166 0,-21.921422 -16.688266,-47.203483 -47.203482,-47.203483 v 0.01316 c -9.014292,-0.01316 -17.841333,2.56894 -25.429894,7.437452 1.310752,-0.157685 2.628073,-0.236527 3.94868,-0.239817 7.470299,-0.0062 14.727066,2.499956 20.604094,7.115515 -7.099084,0.134689 -13.324334,4.763385 -15.499064,11.520819 2.486814,-0.479621 5.049186,-0.381075 7.490009,0.285806 -7.739677,1.563697 -13.307906,8.363842 -13.307906,16.261199 v 0.210241 c 2.306134,-1.284469 4.888216,-1.997327 7.52943,-2.076169 -7.289618,4.87179 -9.536621,14.56938 -5.134599,22.151368 8.422975,-10.364459 20.850478,-16.665267 34.191234,-17.332148 -1.337033,5.762061 0.489479,11.800057 4.799519,15.850572 6.681876,6.281091 17.190885,5.959151 23.471979,-0.719438 3.715438,0.732574 7.276475,2.095886 10.535285,4.02752 -1.23848,-3.84026 -3.83041,-7.102366 -7.2929,-9.175258 3.28838,0.387643 6.5012,1.268044 9.52677,2.611651 -2.2273,-3.337657 -5.03276,-6.24496 -8.278435,-8.593799 z"
         id="path1-4"
         style="fill:#5599ff;fill-opacity:1;stroke-width:0.328509" /><path
         d="M 83.254637,85.279971 87.573794,80.3634 H 86.550653 L 82.798747,84.631518 79.804338,80.3634 h -3.454554 l 4.529122,6.454763 -4.529122,5.15515 h 1.023141 l 3.959551,-4.508243 3.162999,4.508243 h 3.454554 M 77.742199,81.118964 h 1.571834 l 7.235846,10.135907 H 84.97766"
         id="path1-0"
         style="fill:#1a1a1a;stroke-width:0.0386674" /></g></g></svg>
